<?xml version="1.0" encoding="UTF-8"?><svg id="Layer_1" xmlns="http://www.w3.org/2000/svg" viewBox="0 0 500 500"><defs><style>.cls-1{fill:#fff;}</style></defs><path class="cls-1" d="m250,500.59c-66.78,0-129.56-26-176.78-73.22C26,380.15,0,317.37,0,250.6S26,121.03,73.22,73.82C120.44,26.6,183.22.59,250,.59s129.56,26,176.78,73.22c47.22,47.22,73.22,110,73.22,176.78s-26,129.56-73.22,176.77c-47.22,47.22-110,73.22-176.78,73.22Zm0-476.19c-60.42,0-117.22,23.53-159.95,66.25C47.34,133.37,23.81,190.18,23.81,250.6s23.53,117.22,66.25,159.94c42.72,42.72,99.52,66.25,159.95,66.25s117.22-23.53,159.94-66.25c42.72-42.72,66.25-99.52,66.25-159.94s-23.53-117.22-66.25-159.95c-42.72-42.72-99.52-66.25-159.94-66.25Z"/><g id="layer1"><path id="path1009" class="cls-1" d="m110.16,119.07l108.11,144.55-108.79,117.52h24.49l95.25-102.9,76.95,102.9h83.32l-114.19-152.68,101.26-109.39h-24.49l-87.71,94.76-70.87-94.76h-83.32Zm36.01,18.03h38.28l169.03,226h-38.28l-169.03-226Z"/></g></svg>