<?xml version="1.0" encoding="UTF-8"?><svg id="Layer_1" xmlns="http://www.w3.org/2000/svg" viewBox="0 0 500 500"><defs><style>.cls-1{fill:#fff;}</style></defs><path class="cls-1" d="m250,500c-66.78,0-129.56-26-176.78-73.22C26,379.56,0,316.78,0,250.01S26,120.44,73.22,73.22C120.44,26,183.22,0,250,0s129.56,26,176.78,73.22c47.22,47.22,73.22,110,73.22,176.78s-26,129.55-73.22,176.77c-47.22,47.22-110,73.22-176.78,73.22Zm0-476.19c-60.42,0-117.22,23.53-159.94,66.25C47.34,132.78,23.81,189.58,23.81,250.01s23.53,117.22,66.25,159.94c42.72,42.72,99.52,66.25,159.94,66.25s117.22-23.53,159.94-66.25c42.72-42.72,66.25-99.52,66.25-159.94s-23.53-117.22-66.25-159.95c-42.72-42.72-99.52-66.25-159.94-66.25Z"/><path class="cls-1" d="m216.22,387.67h53.97v-135.13h37.64l4.01-45.24h-41.66v-25.76c0-10.66,2.13-14.89,12.45-14.89h29.21v-46.95h-37.37c-40.15,0-58.25,17.69-58.25,51.54v36.07h-28.07v45.81h28.07v134.56Z"/></svg>