<?xml version="1.0" encoding="UTF-8"?><svg id="Layer_1" xmlns="http://www.w3.org/2000/svg" viewBox="0 0 500 500"><defs><style>.cls-1{fill:#fff;}</style></defs><path class="cls-1" d="m250,500c-66.78,0-129.56-26-176.78-73.22C26,379.56,0,316.78,0,250.01S26,120.44,73.22,73.22C120.44,26,183.22,0,250,0s129.56,26,176.78,73.22c47.22,47.22,73.22,110,73.22,176.78s-26,129.56-73.22,176.77c-47.22,47.22-110,73.22-176.78,73.22Zm0-476.19c-60.42,0-117.22,23.53-159.95,66.25C47.34,132.78,23.81,189.58,23.81,250.01s23.53,117.22,66.25,159.94c42.72,42.72,99.52,66.25,159.95,66.25s117.22-23.53,159.94-66.25c42.72-42.72,66.25-99.52,66.25-159.94s-23.53-117.22-66.25-159.95c-42.72-42.72-99.52-66.25-159.94-66.25Z"/><path class="cls-1" d="m250.01,155.1c30.91,0,34.57.11,46.78.68,11.28.51,17.41,2.4,21.49,3.99,5.4,2.1,9.25,4.6,13.3,8.65,4.06,4.06,6.57,7.91,8.67,13.31,1.58,4.08,3.46,10.21,3.98,21.49.56,12.21.68,15.88.68,46.78s-.11,34.57-.68,46.78c-.51,11.29-2.4,17.42-3.98,21.5-2.1,5.4-4.61,9.25-8.67,13.3-4.05,4.05-7.9,6.56-13.3,8.66-4.08,1.59-10.21,3.47-21.49,3.99-12.21.55-15.87.68-46.78.68s-34.57-.12-46.78-.68c-11.28-.51-17.41-2.4-21.49-3.99-5.4-2.1-9.25-4.61-13.31-8.66-4.05-4.05-6.56-7.9-8.66-13.3-1.58-4.08-3.47-10.21-3.99-21.5-.55-12.21-.67-15.85-.67-46.78s.11-34.57.67-46.78c.51-11.28,2.41-17.41,3.99-21.49,2.1-5.4,4.61-9.25,8.66-13.31,4.06-4.05,7.91-6.55,13.31-8.65,4.08-1.59,10.21-3.47,21.49-3.99,12.21-.56,15.87-.68,46.78-.68m0-20.86c-31.43,0-35.38.13-47.73.7-12.32.56-20.73,2.52-28.09,5.38-7.61,2.95-14.07,6.92-20.51,13.35-6.44,6.43-10.39,12.89-13.34,20.5-2.86,7.37-4.83,15.78-5.39,28.1-.56,12.35-.69,16.29-.69,47.72s.12,35.39.69,47.73c.56,12.32,2.53,20.73,5.39,28.1,2.95,7.61,6.91,14.06,13.34,20.5,6.44,6.44,12.89,10.4,20.51,13.35,7.36,2.86,15.77,4.82,28.09,5.38,12.35.56,16.3.7,47.73.7s35.38-.13,47.73-.7c12.32-.56,20.73-2.52,28.09-5.38,7.61-2.95,14.07-6.92,20.51-13.35,6.43-6.44,10.39-12.88,13.35-20.5,2.85-7.37,4.81-15.78,5.38-28.1.55-12.34.69-16.29.69-47.73s-.13-35.37-.69-47.72c-.57-12.32-2.53-20.73-5.38-28.1-2.96-7.6-6.93-14.07-13.35-20.5-6.44-6.44-12.89-10.4-20.51-13.35-7.36-2.86-15.77-4.82-28.09-5.38-12.35-.56-16.3-.7-47.73-.7"/><path class="cls-1" d="m250.01,190.56c-32.83,0-59.44,26.61-59.44,59.43s26.62,59.44,59.44,59.44,59.44-26.62,59.44-59.44-26.62-59.43-59.44-59.43m0,98.02c-21.32,0-38.59-17.28-38.59-38.59s17.27-38.58,38.59-38.58,38.59,17.27,38.59,38.58-17.28,38.59-38.59,38.59"/></svg>