<?xml version="1.0" standalone="no"?>
<!DOCTYPE svg PUBLIC "-//W3C//DTD SVG 20010904//EN"
 "http://www.w3.org/TR/2001/REC-SVG-20010904/DTD/svg10.dtd">
<svg version="1.0" xmlns="http://www.w3.org/2000/svg"
 width="1947.000000pt" height="1818.000000pt" viewBox="0 0 1947.000000 1818.000000"
 preserveAspectRatio="xMidYMid meet">

<g transform="translate(0.000000,1818.000000) scale(0.100000,-0.100000)"
fill="#000000" stroke="none">
<path d="M15730 18174 c-1824 -39 -2574 -69 -3830 -155 -2431 -165 -4633 -485
-6368 -925 -237 -60 -771 -210 -780 -219 -3 -3 107 -525 113 -533 1 -1 73 22
161 52 1572 536 3498 915 6201 1221 1965 222 4434 381 6758 435 220 5 400 8
402 7 1 -2 -192 -18 -430 -35 -2129 -161 -4096 -367 -6148 -643 l-316 -43 39
-118 c22 -65 45 -118 52 -118 6 0 79 11 161 25 1257 205 2998 445 4655 639
1161 137 2743 300 2995 309 54 2 60 4 63 24 2 17 -3 24 -20 27 -22 5 -386 17
-1103 37 -340 9 -2313 19 -2605 13z"/>
<path d="M12685 15653 c-11 -2 -56 -16 -100 -30 -201 -65 -264 -127 -273 -269
-4 -67 -2 -78 27 -133 28 -55 31 -68 31 -153 0 -52 -7 -114 -15 -140 -25 -84
-29 -158 -10 -208 9 -25 30 -137 46 -250 40 -292 47 -324 91 -413 46 -91 128
-180 201 -216 75 -38 84 -61 31 -81 -20 -8 -44 2 -155 65 -293 169 -338 185
-539 192 -272 9 -405 -45 -525 -212 -105 -148 -152 -292 -165 -515 -8 -128
-30 -262 -60 -370 -23 -78 -33 -426 -19 -640 14 -232 11 -256 -56 -455 -45
-135 -93 -235 -145 -305 -47 -62 -62 -107 -90 -259 -30 -163 -39 -177 -152
-237 -57 -30 -115 -70 -149 -104 -52 -51 -58 -61 -73 -130 -18 -80 -36 -116
-104 -204 -58 -74 -172 -274 -172 -302 0 -47 205 -265 314 -334 32 -20 55 -42
56 -53 0 -9 -32 -51 -70 -93 -39 -42 -83 -99 -97 -127 -24 -48 -26 -60 -23
-147 7 -197 5 -202 -111 -266 -106 -58 -110 -69 -116 -262 -3 -103 -10 -174
-20 -207 -9 -27 -81 -202 -159 -390 -126 -298 -168 -413 -340 -935 -108 -327
-232 -696 -276 -819 -63 -178 -77 -229 -69 -245 5 -12 68 -88 139 -169 l129
-148 7 -67 c3 -37 6 -123 6 -192 0 -303 52 -497 157 -589 79 -70 158 -77 332
-29 106 29 128 32 268 33 83 0 155 -3 158 -7 4 -4 -11 -67 -34 -140 -98 -318
-141 -539 -141 -726 0 -268 66 -381 215 -370 138 12 390 193 504 364 74 111
89 168 97 386 4 101 12 199 18 218 7 19 53 100 103 180 188 301 277 526 244
614 -32 81 -121 151 -211 165 -70 11 -137 -3 -244 -51 -50 -23 -113 -43 -139
-46 -42 -4 -52 -1 -76 22 -15 14 -40 53 -56 86 l-28 59 34 53 c19 29 57 112
83 183 102 275 150 365 303 562 184 236 232 323 307 556 63 194 94 247 147
247 37 0 76 -35 136 -122 64 -94 243 -405 302 -527 43 -90 45 -98 53 -220 15
-229 21 -264 65 -338 70 -119 75 -139 84 -348 11 -230 30 -351 67 -425 22 -45
36 -59 77 -80 47 -23 62 -25 225 -28 226 -5 216 4 265 -223 12 -57 30 -101 75
-176 l59 -100 11 -144 c19 -250 54 -448 99 -569 11 -30 53 -111 92 -180 164
-288 355 -700 437 -945 23 -66 73 -246 113 -400 93 -363 93 -376 21 -541 -39
-90 -54 -139 -58 -185 -6 -70 -7 -66 145 -415 76 -175 91 -241 91 -414 1 -343
44 -553 134 -642 75 -76 254 -152 419 -178 157 -26 278 8 358 98 85 97 120
199 120 357 0 164 -25 247 -194 642 -80 186 -165 395 -191 465 -41 113 -46
137 -46 211 0 107 -14 153 -103 335 -81 165 -118 261 -153 401 -23 90 -24 107
-24 460 0 628 -38 1015 -124 1267 -29 87 -134 301 -272 559 -163 303 -177 339
-182 462 -4 101 -4 104 26 150 71 110 74 127 71 323 l-4 177 28 42 c33 49 57
112 57 148 0 14 -14 56 -31 95 -36 82 -54 175 -110 563 -53 371 -77 481 -159
730 -38 116 -74 233 -80 260 -6 28 -25 71 -42 97 l-30 48 35 62 c46 84 87 200
87 249 0 54 -21 92 -94 167 l-61 64 -3 312 -3 311 31 79 c57 143 55 274 -7
459 l-37 109 39 77 c41 79 108 161 132 161 7 0 49 -24 92 -54 122 -83 239
-132 376 -156 57 -9 379 -31 680 -46 183 -8 245 -28 410 -132 31 -20 73 -35
111 -41 74 -12 125 -36 198 -96 32 -25 66 -45 80 -45 62 0 59 72 -9 171 -77
112 -64 125 108 114 220 -15 260 -7 255 48 -4 42 -33 55 -162 76 -89 15 -101
19 -104 38 -3 21 0 21 175 25 192 4 227 12 221 51 -6 42 -124 81 -303 99 -100
10 -124 18 -125 41 0 15 47 27 178 47 158 23 218 46 228 86 6 22 2 31 -17 47
-21 17 -34 19 -119 13 -52 -3 -172 -9 -266 -13 -163 -6 -173 -5 -206 15 -41
25 -78 88 -78 131 0 18 17 63 40 105 46 84 50 117 15 151 -53 54 -136 19 -150
-61 -21 -121 -49 -165 -117 -183 -65 -16 -104 -45 -144 -106 -23 -34 -47 -58
-63 -63 -14 -4 -73 -7 -131 -7 -99 0 -112 3 -245 49 -113 39 -168 52 -284 67
-80 10 -149 23 -155 29 -6 6 13 33 56 78 64 66 88 112 88 168 0 12 18 44 40
70 54 65 83 127 88 189 3 43 -1 62 -28 115 -33 65 -34 86 -9 147 10 25 10 53
1 140 -6 59 -14 207 -17 328 -7 251 -19 374 -42 419 -9 17 -123 140 -255 272
-131 133 -238 246 -238 252 0 27 70 52 215 76 309 51 587 51 926 0 l107 -16
41 -82 c72 -147 181 -262 269 -285 20 -6 102 -26 181 -46 198 -49 232 -67 334
-175 214 -224 462 -618 540 -857 26 -78 27 -93 27 -275 0 -292 26 -474 102
-706 165 -505 513 -878 847 -908 136 -13 284 41 384 140 177 174 267 444 267
800 0 168 -18 306 -60 477 -80 318 -193 540 -360 708 -131 133 -285 194 -530
210 -89 6 -137 15 -210 40 -125 42 -298 126 -396 191 -160 107 -328 309 -341
410 -4 25 3 81 17 144 l23 104 -42 88 c-33 68 -43 103 -48 161 -5 62 -11 80
-38 116 -28 36 -34 52 -37 109 -4 75 -25 113 -73 137 -67 32 -473 23 -655 -16
-41 -9 -82 -16 -90 -15 -8 0 -175 30 -370 67 -530 98 -735 130 -1060 165 -233
26 -298 36 -308 49 -16 19 -10 179 9 245 6 22 54 103 107 180 121 179 149 240
173 374 28 154 35 387 15 480 -27 126 -76 215 -153 274 -19 14 -60 62 -92 105
-88 120 -134 156 -249 192 -109 34 -157 44 -320 66 -105 14 -262 18 -307 8z
m3790 -3589 c67 -38 271 -133 340 -158 16 -6 12 -11 -30 -36 -67 -38 -118 -93
-159 -170 -29 -54 -36 -61 -42 -45 -58 162 -116 289 -185 403 -23 37 -44 72
-47 77 -3 6 5 2 18 -7 14 -10 61 -38 105 -64z m881 -344 c74 -36 105 -60 185
-139 145 -145 248 -319 322 -542 62 -183 81 -308 82 -514 0 -185 -7 -240 -47
-365 -133 -417 -485 -500 -800 -188 -429 423 -546 1320 -218 1672 90 97 164
128 297 123 85 -3 97 -6 179 -47z"/>
<path d="M3095 14253 c-333 -18 -705 -97 -1008 -215 -151 -59 -436 -201 -547
-272 -222 -143 -506 -386 -691 -591 -427 -472 -695 -1018 -799 -1622 -27 -160
-50 -428 -50 -583 0 -368 75 -801 195 -1135 232 -645 711 -1239 1326 -1644
421 -279 877 -440 1406 -496 162 -18 550 -20 703 -5 379 38 739 135 1058 286
533 252 1022 677 1362 1184 268 401 426 815 501 1320 27 176 37 609 19 801
-69 771 -369 1418 -915 1978 -694 712 -1559 1047 -2560 994z m560 -877 c442
-66 805 -225 1150 -503 127 -102 349 -330 442 -453 186 -247 326 -529 398
-806 86 -328 104 -717 50 -1054 -80 -496 -307 -931 -680 -1305 -395 -396 -854
-624 -1405 -697 -143 -19 -519 -16 -665 6 -527 76 -985 306 -1365 686 -200
201 -345 401 -464 640 -115 233 -182 444 -223 710 -22 144 -25 566 -5 705 55
380 171 690 372 992 102 154 209 280 362 429 403 389 869 606 1428 664 119 12
485 4 605 -14z"/>
</g>
</svg>
